<?xml version="1.0" encoding="UTF-8"?>
<svg id="Calque_2" data-name="Calque 2" xmlns="http://www.w3.org/2000/svg" viewBox="0 0 376.25 352.29">
  <defs>
    <style>
      .cls-1 {
        stroke: #1d1d1b;
        stroke-width: 5.6px;
      }

      .cls-1, .cls-2 {
        stroke-miterlimit: 10;
      }

      .cls-1, .cls-3 {
        fill: #fff;
      }

      .cls-2 {
        fill: none;
        stroke: #000100;
      }

      .cls-4 {
        fill-rule: evenodd;
      }

      .cls-4, .cls-5, .cls-6, .cls-7, .cls-3, .cls-8 {
        stroke-width: 0px;
      }

      .cls-4, .cls-6 {
        fill: #1d1d1b;
      }

      .cls-5 {
        fill: #f9b233;
      }

      .cls-7 {
        fill: #e23012;
      }

      .cls-8 {
        fill: #000100;
      }
    </style>
  </defs>
  <g id="Casque">
    <polygon class="cls-5" points="0 125.63 376.25 125.63 245.12 352.29 188.13 352.29 131.13 352.29 0 125.63"/>
    <path class="cls-4" d="M275.41,299.93l-87.68-42.7-86.55,43.3c.04.09,29.95,51.76,29.95,51.76h113.99l30.29-52.36Z"/>
    <path class="cls-1" d="M138.09,230.36c0,16.62,6.51,42.52,21.33,61.67,7.48,9.66,17.04,21.67,29,21.67,30.33,0,55-62.33,55-83.33,0-7,11-75.67-47.33-75.67-63,0-58,75.67-58,75.67Z"/>
    <circle class="cls-2" cx="215.79" cy="238.25" r="4.12"/>
    <path class="cls-8" d="M205.25,243.97c-.99-.22-1.98-.46-2.96-.71-.18-.05-.29-.23-.24-.41.01-.04.03-.08.05-.11l.04-.05c1.44-2,3.09-3.82,4.98-5.43,1.87-1.63,4.03-3.01,6.54-3.86,1.27-.34,2.67-.59,4.03-.44,1.36.12,2.64.5,3.83,1.01,2.41,1.02,4.44,2.48,6.31,4.27l.05.05c.34.33.39.84.15,1.22-.68,1.09-1.43,1.92-2.28,2.73-.84.81-1.82,1.47-2.83,2.01-1.01.56-2.13.93-3.24,1.14-1.12.23-2.26.19-3.35.08,1.09-.2,2.15-.41,3.13-.85.5-.17.96-.44,1.43-.67.44-.29.89-.54,1.31-.86.84-.61,1.58-1.34,2.26-2.11.66-.76,1.28-1.67,1.7-2.48l.2,1.27c-.83-.71-1.8-1.4-2.77-1.99-.97-.59-1.97-1.14-3-1.55-1.03-.41-2.09-.7-3.13-.82-1.05-.14-2.07.04-3.12.28-2.1.57-4.16,1.7-6.09,3.02-1.92,1.33-3.8,2.82-5.54,4.45l-.15-.58c.91.45,1.81.91,2.71,1.4Z"/>
    <circle class="cls-8" cx="215.79" cy="238.25" r="4.12"/>
    <path class="cls-8" d="M202.41,236s.16-.07.47-.2c3.5-1.47,25.55-10.66,30.03-10.43,4.87.25,4.87,2.62,4.87,2.62,0,0-.5-1-5.12-1s-9.29,7.12-17.92,7.12l-6.3,3.27-6.03-1.4Z"/>
    <circle class="cls-3" cx="216.95" cy="237.09" r="1.56"/>
    <path class="cls-8" d="M218.37,234.12s3.06.58,4.64-.4c1.58-.99-1.69,1.42-1.69,1.42,0,0,1.88.27,3.21-.38,1.33-.64-1.35,1.21-1.35,1.21,0,0,3.4.66,6.81-2.23,3.56-3.02-1.73,3.11-1.73,3.11,0,0,1.83.12,3.69-2.38,1.01-1.36-.17,3.37-2.42,4.18s-3.32.13-3.32.13l-7.84-4.65Z"/>
    <path class="cls-8" d="M226.72,238.65s4.06,0,4.5,2.75c.3,1.92-.69-1.61-3.29-1.25-1.49.2,1.77.39,1.92,2.94.11,1.87-1.39-1.8-3.81-1.3-3.25.66.69-3.14.69-3.14Z"/>
    <circle class="cls-2" cx="162.9" cy="238.24" r="4.12"/>
    <path class="cls-8" d="M171.87,244.44c1.4-.7,2.81-1.38,4.24-2l-.22.81c-1.71-1.63-3.56-3.15-5.47-4.49-1.91-1.34-3.96-2.46-6.05-3.06-1.05-.24-2.07-.43-3.12-.29-1.04.12-2.11.39-3.14.81-2.04.85-4.07,2.09-5.78,3.54l.2-1.25c.41.82,1.03,1.72,1.7,2.48.68.78,1.42,1.5,2.27,2.11.41.32.86.58,1.31.86.47.23.93.5,1.43.67.98.43,2.04.64,3.14.84-1.09.11-2.23.14-3.35-.09-1.12-.21-2.22-.58-3.24-1.14-1.02-.55-1.98-1.21-2.83-2.01-.85-.82-1.59-1.65-2.28-2.73-.25-.39-.18-.89.15-1.2l.06-.05c1.87-1.78,3.89-3.26,6.3-4.28,1.19-.5,2.47-.9,3.83-1.03,1.36-.15,2.76.1,4.03.44,1.26.4,2.44.96,3.52,1.62.56.31,1.06.69,1.59,1.03.5.38,1,.75,1.47,1.17,1.9,1.61,3.59,3.4,5.05,5.39l.04.06c.16.21.11.51-.1.67-.05.04-.11.06-.16.08-1.51.39-3.03.73-4.57,1.05Z"/>
    <circle class="cls-8" cx="162.9" cy="238.24" r="4.12"/>
    <path class="cls-8" d="M176.27,235.99s-.16-.07-.47-.2c-3.5-1.47-25.55-10.66-30.03-10.43-4.87.25-4.87,2.62-4.87,2.62,0,0,.5-1,5.12-1s9.29,7.12,17.92,7.12l6.3,3.27,6.03-1.4Z"/>
    <circle class="cls-3" cx="163.94" cy="237.08" r="1.56"/>
    <path class="cls-8" d="M159.69,234.12s-3.06.58-4.65-.4c-1.58-.99,1.69,1.42,1.69,1.42,0,0-1.87.27-3.21-.38-1.33-.64,1.36,1.21,1.36,1.21,0,0-3.4.66-6.81-2.23-3.56-3.02,1.73,3.11,1.73,3.11,0,0-1.83.12-3.69-2.38-1-1.36.17,3.37,2.42,4.18s3.32.13,3.32.13l7.84-4.65Z"/>
    <path class="cls-8" d="M151.33,238.65s-4.06,0-4.5,2.75c-.31,1.92.69-1.61,3.29-1.25,1.49.2-1.77.39-1.92,2.94-.11,1.87,1.39-1.8,3.81-1.3,3.25.66-.69-3.14-.69-3.14Z"/>
    <path class="cls-8" d="M155.8,235.97l-4.2,3.08,4.47,4.58s-3.76-4.4-.28-7.66Z"/>
    <path class="cls-8" d="M222.79,235.97l4.2,3.08-4.47,4.58s3.76-4.4.28-7.66Z"/>
    <path class="cls-8" d="M171.6,288.13s10.29.83,14.83-1c2.55-1.03,5.33,1.83,5.33,1.83l3.25-1.95s8.25,2.32,11.92.97c2.09-.77-8.83,9.14-15.83,9.14-14.22,0-19.5-9-19.5-9Z"/>
    <path class="cls-4" d="M259.64,183.9c0-55.55-84.6-70.34-121.64-33.31-14.82,14.82-20.16,47-21.94,55.88-1.78,8.88-1.78,5.58-6.85,18.66-5.07,13.08-5.42,15.13-1.37,27.06,4.06,11.92,14.71,14.21,14.71,14.21,0,0-3.55-5.58,0-1.02,3.55,4.57,11.42,7.86,11.42,7.86,0,0-7.61-10.15-1.27-3.3,6.34,6.85,19.83,8.56,19.83,8.56-7.1-10.15-13.82-44.27-13.82-44.27l1.38-18.57c1.51,1.9,3.39,3.52,5.74,4.61,0,0-3.2-8.26-4.89-16.06l.05-.73c1.35,3.74,4.42,10.58,10.6,12.27,1.54.42,19.87,8.64,37.81,9.09,18.4.47,36.45-6.85,39.88-8.59,0,0,8.14-8.92,9.22-13.06-.64,4.54-2.12,12.24-5.09,14.62-3.12,2.51,4.96-.62,10.51-5.73.23,2.26.31,4.42.31,6.39,0,36.45-16.24,56.87-16.24,56.87,0,0,4.15,1.48,3.9,1.73s-8.12,1.01,4.82,2.54c12.94,1.52,27.9-12.68,29.68-21.31s-6.77-18.85-6.77-74.4Z"/>
    <g>
      <path class="cls-7" d="M230.6,254.93c-9.08,1.55-16.62,3.61-25.3,3.98"/>
      <path class="cls-7" d="M230.1,253.12c-8.25,1.42-16.41,3.52-24.8,3.91-2.4.11-2.42,3.86,0,3.75,8.73-.4,17.22-2.57,25.8-4.05,2.37-.41,1.37-4.02-1-3.62h0Z"/>
    </g>
    <g>
      <path class="cls-7" d="M151.49,263.8c8.14,1.23,14.87,3.03,22.69,3.11"/>
      <path class="cls-7" d="M150.99,265.61c7.72,1.18,15.35,3.06,23.19,3.17,2.41.03,2.41-3.72,0-3.75-7.51-.11-14.81-1.91-22.19-3.04-1-.15-2.02.25-2.31,1.31-.24.89.3,2.15,1.31,2.31h0Z"/>
    </g>
    <g>
      <path class="cls-7" d="M227.3,263.8c-8.14,1.23-14.87,3.03-22.69,3.11"/>
      <path class="cls-7" d="M226.8,261.99c-7.39,1.13-14.69,2.93-22.19,3.04-2.41.03-2.42,3.78,0,3.75,7.84-.11,15.48-1.99,23.19-3.17,1-.15,1.56-1.41,1.31-2.31-.29-1.07-1.3-1.46-2.31-1.31h0Z"/>
    </g>
    <g>
      <path class="cls-7" d="M150.19,254.93c9.08,1.55,16.62,3.61,25.3,3.98"/>
      <path class="cls-7" d="M149.69,256.74c8.58,1.48,17.07,3.64,25.8,4.05,2.41.11,2.41-3.64,0-3.75-8.39-.39-16.55-2.49-24.8-3.91-2.36-.41-3.37,3.21-1,3.62h0Z"/>
    </g>
    <path class="cls-6" d="M325.98,77.45c-17.54,19.04-34.65,23.47-34.65,23.47,9.29-7.28,15.68-16.61,15.68-16.61-2.67.29-2.95-1.44-2.95-1.44,29.32-22.28,24.52-50.32,24.52-50.32-18.89,34.97-37.46,49.46-37.46,49.46C333.79,17.43,320.86,0,320.86,0c-12.69,33.53-47.21,70.87-47.21,70.87,1.16,6.27-.75,9.94-.75,9.94l-1.23-5.3c-15.35,12.05-43.18,24.75-57.48,24.96-1.11-.27-2.29-.26-3.48.1-4.35.22-5.46,5.96-5.46,5.96l-16.69,34.3-16.69-34.3s-1.11-5.74-5.46-5.96c-1.19-.36-2.37-.37-3.48-.1-14.3-.21-42.13-12.91-57.48-24.96l-1.23,5.3s-1.9-3.66-.75-9.94c0,0-34.52-37.34-47.2-70.87,0,0-12.92,17.43,29.74,82.02,0,0-18.57-14.48-37.46-49.46,0,0-4.81,28.04,24.52,50.32,0,0-.28,1.72-2.95,1.44,0,0,6.39,9.33,15.68,16.61,0,0-17.12-4.43-34.65-23.47,0,0-7.07,12.09,22.96,35.63,0,0-.2,2.8-19.43-9.62,0,0-7.98,15.54,28.33,33.49,0,0-19.24.98-22.87-1.34,0,0-3.49,15.79,38.21,24.16,0,0-15.76,1.28-17.4,1.16,0,0-.49,1.66,1.05,3.18,0,0-.56.73-3.48-3.02l-12.76.62s2.08,19.61,43.01,15.02c0,0-3.67,7.91-27.38,14.37,0,0,6.24,11.92,39.55.64,0,0,8.94,20.96-4.88,26.53l-.02,11.86,72.52-63.58,72.52,63.58-5.43-19.65c-13.81-5.56-2.87-18.86-2.87-18.86,33.31,11.28,42.95-.52,42.95-.52-23.71-6.46-27.38-14.37-27.38-14.37,40.93,4.59,43.01-15.02,43.01-15.02l-12.76-.62c-2.92,3.75-3.48,3.02-3.48,3.02,1.54-1.52,1.05-3.18,1.05-3.18-1.64.12-17.4-1.16-17.4-1.16,41.7-8.37,38.21-24.16,38.21-24.16-3.63,2.31-22.87,1.34-22.87,1.34,36.32-17.95,28.33-33.49,28.33-33.49-19.23,12.42-19.43,9.62-19.43,9.62,30.03-23.55,22.96-35.63,22.96-35.63Z"/>
    <g>
      <g>
        <path class="cls-6" d="M131.85,175.79c-.07.2-.1.33-.1.33.03-.11.06-.22.1-.33Z"/>
        <path class="cls-3" d="M131.85,175.8c-.05.14,0,.23,0,.24-.01-.02-.08.03-.03.09l-.13-.03c-.02-.06-.05-.06,0-.08.04-.02.12-.08.16-.21ZM131.86,175.78s.05.02.06.11c.02.09-.04.19-.09.24l-.07.06s-.06.02-.08,0c-.02-.02-.02-.06,0-.08h0c.08-.06.04-.12.06-.24.04-.09.12-.11.1-.09Z"/>
      </g>
      <g>
        <path class="cls-6" d="M247.71,175.79c.03.11.07.22.1.33,0,0-.03-.12-.1-.33Z"/>
        <path class="cls-3" d="M247.72,175.8c.04.14.12.19.14.2-.02,0-.05.06.02.1l-.13.03c-.05-.04-.08-.03-.05-.07.03-.03.06-.13.02-.26ZM247.71,175.78s.05-.01.12.06c.07.07.07.19.05.26l-.02.08s-.04.05-.07.04c-.03-.01-.05-.04-.04-.07h0c.04-.09-.02-.13-.07-.24-.02-.1.03-.15.04-.13Z"/>
      </g>
    </g>
    <path class="cls-6" d="M201.81,168.12s1.39.83,1.55.88l-.32-.88,2.03,1.3-.64-.87s.11.23,1.98,1.26c0,0,.75.46,2.25.57,0,0-.6-.15-.91-.9,0,0,.32.51,2.41.9,0,0-.65-.76-.51-.81,0,0,.57.81,2.97,1.84l2.41,1.03s5.13,1.54,8.45,1.08c3.32-.46,4.01-.36,6.53-1.55,0,0-1.39.52-4.92-.2,0,0,1.92.2,3.58-.16,0,0-1.55-.1-3.96-1.08,0,0,2.35,0,5.62-2.43,0,0-.48.26-1.87.41,0,0,1.28-.31,3.21-3.2,0,0,.05.21-2.14,1.34,0,0,1.02-.05,2.14-4.54,0,0,.11-.72,1.45-1.29,0,0-1.12-.46-2.14-.21,0,0,1.45-.72,2.57-.08,0,0-.96-1.16-3.1-.7,0,0-2.14.46-2.57.72,0,0,2.46-2.27,4.97-1.8,0,0-2.14-.79-4.44-.06,0,0,1.77-1.28,3.37-1.22,0,0-.96-.73-3.48,0,0,0,.96-1.23,1.34-2.52,0,0-2.49.9-3.5,1.41,0,0,1.04-.8,1.76-5.4.71-4.51-.18-7.35-.18-7.35,0,0-2.24,4.76-7.38,8.77-11.6,9.04-19.02,11.89-19.02,11.89l.51,3.83Z"/>
    <path class="cls-3" d="M200.18,129.21s.59-4.24,7.58-7.56c13.8-6.57,38.35-5.26,55.85-15.11,11.92-6.71,15.7-13.27,15.7-13.27,0,0,4.79,14.33-7.94,21.67-12.73,7.33-9.06,6.33-9.06,6.33,0,0,16.33.67,24-3.67,0,0-.33,12.67-16.33,15.67-9.74,1.83-10.61,3.28-11.37,3.35,1.26.72,12.95,7.33,23.75,7.02,0,0-7.03,5.41-19.54,5.91.01,0,.03-.01.03-.01,0,0-5.98-2.26-7.48-2.26-.88,0,.09,1.19,1.18,2.24-10.12-.38-13.3-2-13.3-2,0,0,1.37,7.63,32.93,15.4,0,0-9.52,5.55-14.31,5.59-6.6.06-12.9-2.1-15.73-3.02,6.15,6.03,9.35,8.29,19.19,12.91,0,0-17.62,3.07-30.44-10.62-5.85-6.25-6.67-7.5-6.36-10.98-7.28-1.99-13.67-3.53-13.67-3.53l-14.67-24.06Z"/>
    <path class="cls-3" d="M181.07,129.21s-.59-4.24-7.58-7.56c-13.8-6.57-38.35-5.26-55.85-15.11-11.92-6.71-15.7-13.27-15.7-13.27,0,0-4.79,14.33,7.94,21.67,12.73,7.33,9.06,6.33,9.06,6.33,0,0-16.33.67-24-3.67,0,0-1.67,14.67,14.33,17.67,9.74,1.83,12.61,2.28,13.37,2.35-1.26.72-12.95,6.33-23.75,6.02,0,0,7.03,5.41,19.54,5.91-.01,0-.03-.01-.03-.01,0,0,5.98-2.26,7.48-2.26.88,0-.09,1.19-1.18,2.24,10.12-.38,13.3-2,13.3-2,0,0-1.37,7.63-32.93,15.4,0,0,7.17,2.57,13.52,2.57,3.49,0,11.28-1.65,14.11-2.57-6.15,6.03-6.94,10.87-16.77,15.48,0,0,17.62,3.07,30.44-10.62,5.85-6.25,6.67-7.5,6.36-10.98,7.28-1.99,13.67-3.53,13.67-3.53l14.67-24.06Z"/>
    <g>
      <path class="cls-6" d="M253.59,184.26c-6.9-5.1-10.27-12.55-10.27-12.55,3.16,1.39,4.13,3.33,4.4,4.09-1.25-4.36-5.44-9.68-5.44-9.68,1.85,1.08,2.89,3.73,2.89,3.73,0,0,.4.39-.8-2.55-1.2-2.94-2.81-4.02-2.81-4.02,0,0,2.65,1.37,2.33,0-.32-1.37-4.49-6.08-4.49-6.08,0,0,2.01,1.96,1.2,0-.8-1.96-3.61-5-3.61-5,0,0,1.85,1.08.88-.88-.96-1.96-3.53-3.53-3.53-3.53,0,0,.88-.69,1.45-.98s-3.29-3.73-3.29-3.73c.15-.36,1.65.04,1.33-.67,4.99,1.37,10.71-.08,10.71-.08-4.89,0-10.68-2.78-10.68-2.78,12.39,1.77,19.4-2.21,19.4-2.21-2.13.53-5.76-.71-5.76-.71,15.02-1.67,20.87-7.79,20.87-7.79-6.26,2.6-29.34,3.81-29.34,3.81,1.29.1,2.45-2.19,2.45-2.19-9.02,3.41-28.74-9.25-28.74-9.25,0,0,.98,1.16,2.49,2.93-6.23-3.95-15.4-7.68-25.27-7.73h0c-.05,0-.1,0-.15,0s-.1,0-.15,0h0c-11.36.07-21.81,5-27.89,9.53,2.35-2.74,4.02-4.72,4.02-4.72,0,0-19.73,12.66-28.74,9.25,0,0,1.16,2.29,2.45,2.19,0,0-23.07-1.21-29.34-3.81,0,0,5.85,6.12,20.87,7.79,0,0-3.62,1.25-5.76.71,0,0,7.01,3.98,19.4,2.21,0,0-5.79,2.78-10.68,2.78,0,0,6.86,1.74,12.11-.39-.07.09-.12.16-.19.27-.72,1.01,1.05.49,1.2.88,0,0-3.85,3.43-3.29,3.73s1.45.98,1.45.98c0,0-2.57,1.57-3.53,3.53-.96,1.96.88.88.88.88,0,0-2.81,3.04-3.61,5-.8,1.96,1.2,0,1.2,0,0,0-4.17,4.71-4.49,6.08-.32,1.37,2.33,0,2.33,0,0,0-1.61,1.08-2.81,4.02-1.2,2.94-.8,2.55-.8,2.55,0,0,1.04-2.65,2.89-3.73,0,0-4.19,5.32-5.44,9.68.27-.76,1.23-2.7,4.4-4.09,0,0-3.37,7.46-10.27,12.55-6.9,5.1-3.21,3.04-1.04,2.06,2.17-.98,3.13-1.47,3.13-1.47l10.83-.88-6.5,16.38s-1.46,1.87,14.3-3.96c15.75-5.83,17.88-9.64,17.88-9.64-1.37,2.33-2.6,6.49-2.6,6.49,3.66-6.03,9.91-9.45,12.48-10.67l1.09-.46c-3.02,2.11-1.68,4.04-1.68,4.04,1.75-4.1,15.92-8.66,15.92-8.66l-4.72.6,4.72-1.99,4.56,1.93-4.19-.53s14.16,4.57,15.92,8.66c0,0,1.2-1.72-1.2-3.68l2.35.99c3.03,1.67,7.75,4.85,10.74,9.78,0,0-1.16-3.92-2.49-6.29l.05.02c.71.89,4.19,4.41,17.71,9.41,15.75,5.83,14.3,3.96,14.3,3.96l-.49-.31-6.38-16.08,10.83.88s.96.49,3.13,1.47,5.86,3.04-1.04-2.06Z"/>
      <g>
        <g>
          <path class="cls-3" d="M204.95,183.22c-5.62-.86-4.71-3.08-4.81-6.04-.11-2.96-1.82-5.73-2.14-7.67-.31-1.88-2.45-6.42-7.05-6.58-.03,0-.06-.01-.09-.02-.05,0-.1,0-.15,0s-.1,0-.15,0c-.03,0-.06.01-.09.02-4.59.16-6.74,4.69-7.05,6.58-.32,1.94-2.03,4.71-2.14,7.67-.11,2.96.8,5.17-4.81,6.04-8.21,1.26-5.56,7.76-.96,8.01,4.6.25,12.41,14.66,13.05,16.01.64,1.36,1.5,5.54,1.5,5.54l.65.4.65-.4s.86-4.19,1.5-5.54c.64-1.35,8.45-15.77,13.05-16.01,4.6-.25,7.25-6.75-.96-8.01Z"/>
          <path class="cls-6" d="M204.94,183.29c-1.13-.18-2.28-.39-3.31-.96-.51-.28-.97-.7-1.24-1.24-.28-.53-.36-1.14-.4-1.71-.05-1.16.03-2.29-.21-3.39-.22-1.1-.61-2.16-1.04-3.21-.41-1.05-.92-2.1-1.16-3.29-.24-1.03-.75-2.04-1.38-2.92-1.24-1.79-3.19-2.98-5.28-2.99h-.07s0-.02-.05-.01h-.1s-.1,0-.1,0c-.05,0-.03,0-.05,0h-.07c-1.29.07-2.51.55-3.5,1.36-.99.81-1.76,1.91-2.31,3.1-.13.3-.25.6-.35.91-.05.15-.09.3-.12.45l-.1.51c-.17.78-.43,1.46-.68,2.13-.51,1.33-.99,2.62-1.24,3.91-.29,1.28-.05,2.58-.25,4.21-.09.81-.54,1.74-1.24,2.29-.68.56-1.44.84-2.17,1.06-.72.21-1.48.33-2.17.44-.67.1-1.31.26-1.93.48-1.21.43-2.32,1.21-2.58,2.29-.28,1.07.34,2.31,1.32,3.04.49.37,1.07.64,1.68.77.33.08.54.07,1.03.14.43.08.81.23,1.16.41,1.39.74,2.41,1.8,3.39,2.87.97,1.08,1.84,2.22,2.67,3.38,1.65,2.33,3.14,4.76,4.54,7.25.35.62.69,1.25,1.02,1.88.16.31.34.65.47,1.02.13.35.23.7.34,1.04.39,1.39.7,2.77.98,4.17l-.19-.28.65.4h-.44l.65-.39-.19.27c.37-1.67.74-3.31,1.29-4.96.3-.87.77-1.57,1.17-2.32.42-.74.85-1.47,1.29-2.19,1.77-2.89,3.66-5.73,5.88-8.31,1.13-1.27,2.31-2.53,3.83-3.37.38-.2.8-.36,1.23-.43.45-.04.83-.06,1.24-.17.8-.2,1.55-.62,2.14-1.2.59-.58,1.02-1.34,1.12-2.17.1-.83-.19-1.66-.73-2.29-1.13-1.26-2.86-1.74-4.49-2.01ZM204.96,183.14c1.65.28,3.41.76,4.58,2.06.56.65.88,1.54.77,2.4-.1.87-.55,1.65-1.15,2.27-.61.61-1.37,1.07-2.21,1.29-.41.13-.87.16-1.26.21-.4.07-.78.22-1.14.42-1.44.83-2.59,2.11-3.66,3.38-2.13,2.6-3.93,5.47-5.62,8.38-.42.73-.83,1.47-1.23,2.21-.38.75-.83,1.48-1.07,2.22-.51,1.57-.86,3.23-1.2,4.87-.02.12-.1.21-.19.27l-.65.4c-.14.08-.31.08-.44,0l-.65-.39c-.1-.06-.17-.16-.19-.27h0c-.3-1.38-.62-2.76-1.02-4.1-.1-.33-.2-.66-.33-.97-.11-.3-.26-.59-.43-.91-.33-.62-.68-1.23-1.03-1.84-1.41-2.44-2.92-4.83-4.57-7.09-.83-1.13-1.7-2.23-2.63-3.25-.94-1.01-1.95-1.99-3.09-2.57-.28-.14-.57-.24-.84-.29-.21-.04-.71-.05-1.07-.13-.78-.15-1.52-.49-2.17-.95-.64-.48-1.19-1.09-1.55-1.84-.36-.74-.5-1.64-.31-2.49.2-.85.71-1.59,1.33-2.12.62-.53,1.32-.9,2.04-1.17.72-.27,1.45-.46,2.18-.58.71-.13,1.35-.24,1.99-.44.62-.19,1.21-.45,1.62-.8.41-.35.62-.78.7-1.37.15-1.18-.1-2.75.21-4.26.26-1.5.82-2.87,1.32-4.18.25-.65.5-1.3.62-1.91l.11-.53c.04-.2.1-.39.16-.57.12-.37.26-.73.42-1.07.63-1.38,1.56-2.65,2.8-3.6,1.22-.96,2.79-1.51,4.34-1.54h-.07c.06,0,.16-.02.19-.01h.14s.14,0,.14,0c.03,0,.13.01.19.02h-.07c1.24.05,2.49.44,3.53,1.12,1.04.68,1.88,1.6,2.52,2.61.64,1.02,1.13,2.11,1.35,3.32.15,1.08.59,2.13.96,3.22.38,1.08.73,2.2.9,3.35.19,1.16.07,2.33.08,3.45.01.56.08,1.12.31,1.61.23.49.65.89,1.13,1.17.97.56,2.11.8,3.22,1Z"/>
        </g>
        <g>
          <path class="cls-6" d="M189.42,206.34s-1.02-8.14-2.54-10.38c-.93-1.38-3.01-4.71-3.26-4.98-.64-.69-1.71-3.74-4.6-4.57-2.89-.83-4.6.83-5.03.83s1.17,1.46,2.78,2.06c1.61.61,3.96,1.53,5.36,2.36s5.09,2.96,7.31,14.67Z"/>
          <path class="cls-6" d="M187.25,171.22s-3.21,3.07-1.54,5.06c1.67,1.99,1.54-4.31,1.54-5.06Z"/>
          <path class="cls-6" d="M193.55,171.28s3.21,3.06,1.54,5.06c-1.67,1.99-1.54-4.3-1.54-5.06Z"/>
          <path class="cls-6" d="M191.98,206.34s1.02-8.14,2.54-10.38c.94-1.38,3.01-4.71,3.26-4.98.64-.69,1.71-3.74,4.6-4.57,2.89-.83,4.6.83,5.03.83s-1.17,1.46-2.77,2.06c-1.61.61-3.97,1.53-5.36,2.36-1.39.83-5.09,2.96-7.3,14.67Z"/>
        </g>
      </g>
      <g>
        <path class="cls-3" d="M166.11,167.66c-4.84-3.47-5.95-10.21-2.48-15.05l17.54,12.57c-3.47,4.84-10.21,5.95-15.05,2.48Z"/>
        <path class="cls-6" d="M168.78,164.46c-2.47-1.77-3.04-5.21-1.27-7.68l8.94,6.41c-1.77,2.47-5.21,3.03-7.68,1.27Z"/>
      </g>
      <g>
        <path class="cls-3" d="M214.79,167.66c4.84-3.47,5.95-10.21,2.48-15.05l-17.54,12.57c3.47,4.84,10.21,5.95,15.05,2.48Z"/>
        <path class="cls-6" d="M212.34,164.25c2.47-1.77,3.04-5.21,1.27-7.68l-8.94,6.41c1.77,2.47,5.21,3.03,7.68,1.27Z"/>
      </g>
    </g>
  </g>
</svg>